<?xml version="1.0" encoding="UTF-8" standalone="no"?><!DOCTYPE svg PUBLIC "-//W3C//DTD SVG 1.1//EN" "http://www.w3.org/Graphics/SVG/1.1/DTD/svg11.dtd"><svg width="100%" height="100%" viewBox="0 0 2480 480" version="1.1" xmlns="http://www.w3.org/2000/svg" xmlns:xlink="http://www.w3.org/1999/xlink" xml:space="preserve" xmlns:serif="http://www.serif.com/" style="fill-rule:evenodd;clip-rule:evenodd;stroke-linejoin:round;stroke-miterlimit:2;"><g id="Réteg-1" serif:id="Réteg 1"><path d="M2191.2,472.55l0,-463.162l93.446,-8.121l-0,310.437l92.708,-147.925l98.684,0l-96.709,153.209l100.438,155.562l-98.967,0l-96.154,-151.054l-0,151.054l-93.446,0Zm-189.342,-241.621c44.375,0 61.959,33.213 61.959,71.017l-0,32.5c-0,45.8 -24.609,72.287 -62.125,72.287c-35.096,0 -59.759,-24.775 -59.759,-72.287l0,-32.496c0,-50.667 29.346,-71.021 59.925,-71.021m1.267,-73.3c-100.917,0 -154.042,56.871 -154.042,158.788c0,139.837 91.579,162.346 154.213,162.346c91.687,-0 152.696,-49.363 152.696,-161.075c-0,-116.267 -68.592,-160.059 -152.867,-160.059m-339.75,73.3c44.375,0 61.958,33.213 61.958,71.017l0,32.5c0,45.8 -24.604,72.287 -62.129,72.287c-35.092,0 -59.758,-24.775 -59.758,-72.287l-0,-32.496c-0,-50.667 29.35,-71.021 59.929,-71.021m1.271,-73.3c-100.921,0 -154.05,56.871 -154.05,158.788c-0,139.837 91.583,162.346 154.216,162.346c91.692,-0 152.692,-49.363 152.692,-161.075c0,-116.267 -68.587,-160.059 -152.858,-160.059m-669.771,63.396c34.017,0 56.058,20.863 54.85,69.242l-114.688,-0c1.988,-50.921 25.759,-69.238 59.838,-69.238l-0,-0.004Zm-2.371,-62.971c-98.271,0 -150.154,53.579 -150.154,148.8l-0,17.692c-0,123.583 72.862,155.4 159.721,155.4c84.429,-0 122.646,-23.617 122.646,-23.617l-17.438,-62.883c0,-0 -44.95,19.125 -94.033,19.125c-50.888,-0 -72.771,-12.971 -78.384,-61.871l197.305,0l-0,-50.45c-0,-103.287 -58.23,-142.2 -139.663,-142.2l0.004,0.004l-0.004,0Zm333.325,72.625c-36.396,0 -60.942,25.384 -60.942,68.554l-0.091,44.1c-0.054,29.105 17.004,63.146 61.033,63.146c61.917,0 60.258,-66.858 60.258,-89.129c0,-74.908 -32.987,-86.671 -60.258,-86.671m26.117,-72.879c86.646,0 126.912,65.175 126.912,157.692c0,116.537 -51.425,163.187 -126.966,163.187c-43.217,0 -75.167,-18.191 -92.425,-52.141l-0,46.045l-87.759,-0.037l0,-463.158l93.179,-8.125l0,205.845c13.446,-36.012 57.642,-49.308 87.063,-49.308l-0.004,0Zm-770.284,160.413c0,-37.521 -1.795,-160.296 158.159,-160.296c64.212,-0 91.021,20.416 91.021,20.416l-21.546,66.838c-0,-0 -26.779,-14.746 -61.671,-14.746c-44.688,0 -73.2,25.904 -73.2,71.488l0.05,32.683c-0,43.796 27.512,73.033 73.242,73.033c31.787,0 61.083,-14.883 61.083,-14.883l21.496,65.442c-0,-0 -24.517,20.541 -90.025,20.541c-152.3,0 -158.604,-110.15 -158.604,-160.516l-0.005,-0Zm-187.57,-87.534c36.391,0 58.233,25.384 58.233,68.554l0.083,44.1c0,29.105 -18.041,63.146 -58.316,63.146c-61.921,0 -60.267,-66.858 -60.267,-89.129c-0,-74.908 32.992,-86.671 60.267,-86.671m-22.596,-72.962c-1.363,-0 -2.767,0.05 -4.15,0.083c-86.646,0 -126.288,65.175 -126.288,157.692c0,116.537 51.421,163.187 126.963,163.187c43.221,0 71.616,-18.196 88.875,-52.141l-0,46.045l88.875,0l-0,-308.775l-88.875,0l-0,47.484c-14.092,-30.55 -43.284,-53.213 -85.4,-53.575m-214.404,314.833l-93.438,0l0,-232.933l-63.654,-0l-0,-75.842l63.65,0l-0,-53.962c-0,-63.95 28.154,-109.813 121.337,-109.813c19.713,-0 50.655,3.971 50.655,3.971l-0,70.421l-32.5,-0c-33.117,-0 -46.046,10.075 -46.046,37.92l-0,51.463l77.308,0l-6.887,75.842l-70.421,-0l-0.004,232.933Z" style="fill:#1877f2;fill-rule:nonzero;"/></g></svg>