<?xml version="1.0" encoding="UTF-8" standalone="no"?><!DOCTYPE svg PUBLIC "-//W3C//DTD SVG 1.1//EN" "http://www.w3.org/Graphics/SVG/1.1/DTD/svg11.dtd"><svg width="100%" height="100%" viewBox="0 0 10334 2000" version="1.1" xmlns="http://www.w3.org/2000/svg" xmlns:xlink="http://www.w3.org/1999/xlink" xml:space="preserve" xmlns:serif="http://www.serif.com/" style="fill-rule:evenodd;clip-rule:evenodd;stroke-linejoin:round;stroke-miterlimit:2;"><g id="Réteg-1" serif:id="Réteg 1"><path d="M9130,1968.96l0,-1929.84l389.358,-33.838l0,1293.49l386.284,-616.354l411.183,-0l-402.954,638.37l418.492,648.175l-412.363,0l-400.642,-629.391l0,629.391l-389.358,0Zm-788.925,-1006.75c184.896,0 258.162,138.388 258.162,295.904l0,135.417c0,190.833 -102.537,301.196 -258.854,301.196c-146.233,-0 -248.996,-103.229 -248.996,-301.196l0,-135.4c0,-211.112 122.275,-295.921 249.688,-295.921m5.279,-305.416c-420.487,-0 -641.842,236.962 -641.842,661.616c0,582.654 381.58,676.442 642.555,676.442c382.029,-0 636.233,-205.679 636.233,-671.146c-0,-484.446 -285.8,-666.912 -636.946,-666.912m-1415.63,305.416c184.896,0 258.158,138.388 258.158,295.904l0,135.417c0,190.833 -102.516,301.196 -258.87,301.196c-146.217,-0 -248.992,-103.229 -248.992,-301.196l-0,-135.4c-0,-211.112 122.292,-295.921 249.704,-295.921m5.296,-305.416c-420.504,-0 -641.875,236.962 -641.875,661.616c-0,582.654 381.596,676.442 642.567,676.442c382.05,-0 636.216,-205.679 636.216,-671.146c0,-484.446 -285.779,-666.912 -636.908,-666.912m-2790.71,264.15c141.738,-0 233.575,86.929 228.542,288.508l-477.867,-0c8.284,-212.171 107.33,-288.492 249.325,-288.492l0,-0.016Zm-9.879,-262.38c-409.462,0 -625.641,223.246 -625.641,620l-0,73.717c-0,514.929 303.591,647.5 665.504,647.5c351.787,0 511.025,-98.404 511.025,-98.404l-72.659,-262.013c0,0 -187.291,79.688 -391.804,79.688c-212.033,-0 -303.212,-54.046 -326.6,-257.796l822.104,0l0,-210.208c0,-430.363 -242.625,-592.5 -581.929,-592.5l0.017,0.016l-0.017,0Zm1388.85,302.605c-151.65,-0 -253.925,105.766 -253.925,285.641l-0.379,183.75c-0.225,121.271 70.85,263.109 254.304,263.109c257.988,-0 251.075,-278.575 251.075,-371.371c0,-312.117 -137.445,-361.129 -251.075,-361.129m108.821,-303.663c361.025,0 528.8,271.563 528.8,657.05c0,485.571 -214.271,679.946 -529.025,679.946c-180.071,-0 -313.196,-75.796 -385.104,-217.254l0,191.854l-365.662,-0.154l-0,-1929.83l388.245,-33.854l0,857.687c56.025,-150.05 240.175,-205.45 362.763,-205.45l-0.017,0Zm-3209.52,668.388c-0,-156.338 -7.48,-667.9 658.995,-667.9c267.55,-0 379.255,85.066 379.255,85.066l-89.775,278.492c-0,-0 -111.58,-61.442 -256.963,-61.442c-186.2,0 -305,107.934 -305,297.867l0.208,136.179c0,182.483 114.634,304.304 305.175,304.304c132.446,0 254.513,-62.012 254.513,-62.012l89.567,272.675c-0,-0 -102.155,85.587 -375.105,85.587c-634.583,0 -660.85,-458.958 -660.85,-668.816l-0.02,-0Zm-781.542,-364.725c151.629,-0 242.637,105.766 242.637,285.641l0.346,183.75c0,121.271 -75.171,263.109 -242.983,263.109c-258.004,-0 -251.113,-278.575 -251.113,-371.371c0,-312.117 137.467,-361.129 251.113,-361.129m-94.15,-304.009c-5.679,0 -11.529,0.209 -17.292,0.346c-361.025,0 -526.2,271.563 -526.2,657.05c0,485.571 214.254,679.946 529.013,679.946c180.087,-0 298.4,-75.817 370.312,-217.254l0,191.854l370.313,-0l-0,-1286.56l-370.313,0l0,197.85c-58.716,-127.291 -180.35,-221.721 -355.833,-223.229m-893.35,1311.8l-389.325,0l-0,-970.554l-265.225,0l-0,-316.008l265.208,-0l0,-224.842c0,-266.458 117.309,-457.554 505.571,-457.554c82.138,-0 211.063,16.546 211.063,16.546l-0,293.421l-135.417,-0c-137.988,-0 -191.858,41.979 -191.858,158l-0,214.429l322.116,-0l-28.696,316.008l-293.42,0l-0.017,970.554Z" style="fill:#fff;fill-rule:nonzero;"/></g></svg>